<svg height="512pt" viewBox="0 0 512 512" width="512pt" xmlns="http://www.w3.org/2000/svg"><path d="m463.09375 406.492188c31.71875-43.519532 48.90625-95.886719 48.90625-150.503907 0-141.480469-114.496094-255.988281-256-255.988281-141.488281 0-256 114.492188-256 255.988281 0 54.601563 17.179688 106.953125 48.878906 150.464844 102.132813-140.484375 311.9375-140.609375 414.214844.039063zm-297.09375-255.5c0-49.621094 40.375-89.996094 90-89.996094s90 40.375 90 89.996094v30c0 49.625-40.375 89.996093-90 89.996093s-90-40.371093-90-89.996093zm0 0"/><path d="m256 240.988281c33.085938 0 60-26.914062 60-59.996093v-30c0-33.082032-26.914062-59.996094-60-59.996094s-60 26.914062-60 59.996094v30c0 33.082031 26.914062 59.996093 60 59.996093zm0 0"/><path d="m68.757812 430.527344c101.289063 108.601562 273.167969 108.683594 374.550782-.074219-89.375-132.792969-284.695313-132.1875-374.550782.074219zm0 0"/></svg>