<?xml version="1.0" encoding="iso-8859-1"?>
<!-- Generator: Adobe Illustrator 19.0.0, SVG Export Plug-In . SVG Version: 6.00 Build 0)  -->
<svg version="1.1" id="Capa_1" xmlns="http://www.w3.org/2000/svg" xmlns:xlink="http://www.w3.org/1999/xlink" x="0px" y="0px"
	 viewBox="0 0 64.482 64.482" style="enable-background:new 0 0 64.482 64.482;" xml:space="preserve">
<g>
	<path d="M11.086,64.481h42.311c6.112,0,11.085-4.974,11.085-11.086V11.084C64.482,4.973,59.509,0,53.397,0H11.086
		C4.973,0,0,4.973,0,11.084v42.312C0,59.508,4.973,64.481,11.086,64.481z M6,11.084C6,8.28,8.281,6,11.086,6h42.311
		c2.804,0,5.085,2.28,5.085,5.084v42.312c0,2.804-2.281,5.086-5.085,5.086H11.086C8.281,58.483,6,56.201,6,53.397V11.084z"/>
	<polygon points="27.99,41.708 32.232,45.949 32.235,45.947 32.237,45.949 36.478,41.708 36.476,41.705 46.011,32.171 
		41.769,27.929 35.297,34.401 35.297,18.533 29.297,18.533 29.297,34.526 22.699,27.929 18.457,32.171 27.992,41.705 	"/>
</g>
<g>
</g>
<g>
</g>
<g>
</g>
<g>
</g>
<g>
</g>
<g>
</g>
<g>
</g>
<g>
</g>
<g>
</g>
<g>
</g>
<g>
</g>
<g>
</g>
<g>
</g>
<g>
</g>
<g>
</g>
</svg>
